<svg xmlns="http://www.w3.org/2000/svg" viewBox="0 0 24 24" width="24" height="24"><path fill="none" d="M0 0h24v24H0z"/><path d="M19 8h-1.81c-.45-.78-1.07-1.45-1.82-1.96L17 4.41 15.59 3l-2.17 2.17C12.96 5.06 12.49 5 12 5c-.49 0-.96.06-1.41.17L8.41 3 7 4.41l1.62 1.63C7.88 6.55 7.26 7.22 6.81 8H5c-1.1 0-2 .9-2 2v3c0 1.1.9 2 2 2h1v1c0 1.1.9 2 2 2h8c1.1 0 2-.9 2-2v-1h1c1.1 0 2-.9 2-2v-3c0-1.1-.9-2-2-2zm0 5h-2v3H7v-3H5v-3h2.17c.47-.83 1.25-1.47 2.19-1.83l2.14 2.14 2.14-2.14c.94.36 1.72 1 2.19 1.83H19v3z" fill="#4A90E2"/></svg>