<?xml version="1.0" encoding="UTF-8"?>
<svg xmlns="http://www.w3.org/2000/svg">
  <defs>
    <!-- Medicine Pill Icon -->
    <symbol id="pill" viewBox="0 0 24 24">
      <path d="M4.22 11.29l7.07-7.07a6 6 0 018.48 8.48l-7.07 7.07a6 6 0 11-8.48-8.48zm1.41 1.42a4 4 0 105.66 5.66l7.07-7.07a4 4 0 00-5.66-5.66l-7.07 7.07z"/>
    </symbol>
    <!-- Medical Cross Icon -->
    <symbol id="medical-cross" viewBox="0 0 24 24">
      <path d="M9 3v6H3v6h6v6h6v-6h6V9h-6V3H9z"/>
    </symbol>
    <!-- Delivery Icon -->
    <symbol id="delivery" viewBox="0 0 24 24">
      <path d="M20 8h-3V4H3c-1.1 0-2 .9-2 2v11h2c0 1.66 1.34 3 3 3s3-1.34 3-3h6c0 1.66 1.34 3 3 3s3-1.34 3-3h2v-5l-3-4zM6 18.5c-.83 0-1.5-.67-1.5-1.5s.67-1.5 1.5-1.5 1.5.67 1.5 1.5-.67 1.5-1.5 1.5zm13.5-9l1.96 2.5H17V9.5h2.5zm-1.5 9c-.83 0-1.5-.67-1.5-1.5s.67-1.5 1.5-1.5 1.5.67 1.5 1.5-.67 1.5-1.5 1.5z"/>
    </symbol>
    <!-- Hospital Icon -->
    <symbol id="hospital" viewBox="0 0 24 24">
      <path d="M19 3H5c-1.1 0-2 .9-2 2v14c0 1.1.9 2 2 2h14c1.1 0 2-.9 2-2V5c0-1.1-.9-2-2-2zm-7 3h2v2h2v2h-2v2h-2v-2H8V8h2V6zm-6 8h14v4H6v-4z"/>
    </symbol>
    <!-- Donation Icon -->
    <symbol id="donation" viewBox="0 0 24 24">
      <path d="M12 21.35l-1.45-1.32C5.4 15.36 2 12.28 2 8.5 2 5.42 4.42 3 7.5 3c1.74 0 3.41.81 4.5 2.09C13.09 3.81 14.76 3 16.5 3 19.58 3 22 5.42 22 8.5c0 3.78-3.4 6.86-8.55 11.54L12 21.35z"/>
    </symbol>
  </defs>
</svg>